<?xml version="1.0" encoding="UTF-8" standalone="no"?>
<!DOCTYPE svg PUBLIC "-//W3C//DTD SVG 1.1//EN"
"http://www.w3.org/Graphics/SVG/1.1/DTD/svg11.dtd">
<svg viewBox="0 0 909 1286" version="1.1" xmlns="http://www.w3.org/2000/svg" xmlns:xlink="http://www.w3.org/1999/xlink">
<defs>
<clipPath id="c0_5"><path d="M688.1,114.9l0,-66.9l177.6,0l0,66.9Z" /></clipPath>
<style type="text/css"><![CDATA[
.g2_5{
fill: #263987;
}
.g3_5{
fill: #E51C2F;
}
.g1_5{
fill: #E71C49;
}
]]></style>
</defs>
<path d="M739.7,49l0,15l7.7,7.6l15.1,-15L754.9,49Z" class="g1_5" />
<path d="M754.9,94.2l7.6,-7.6l-15.1,-15l-7.7,7.6l0,15Z" class="g1_5" />
<path d="M762.5,86.6l7.6,7.6l15,0l0,-15.1l-7.5,-7.5Z" class="g1_5" />
<path d="M770.1,49l-7.6,7.6l15.1,15l7.5,-7.5l0,-15.1Z" class="g1_5" />
<path fill-rule="evenodd" d="M865.7,68l-0.5,-2.2c-0.7,0.1,-1,0.3,-1.3,0.3c-1.3,0,-1.7,-0.5,-1.7,-2.3l0,-7.1l2.4,0l1,-2.6l-3.4,0l0,-3.9l-3.7,0.6l0,3.3l-1.4,0l0,2.6l1.4,0l0,7.7c0,1.3,0,1.5,0.3,2.1c0.4,1.3,1.9,2.1,3.8,2.1c1,0,2,-0.2,3.1,-0.6Z" class="g1_5" />
<path fill-rule="evenodd" d="M807.2,68.3L800.5,57.9l6,-8.9l-4.6,0l-5.5,8.8l0,-8.8l-4,0l0,19.3l4,0l0,-10.1l5.8,10.1Z" class="g1_5" />
<path fill-rule="evenodd" d="M819.5,68.3l0,-10.4c0,-0.9,0,-1.5,-0.2,-2c-0.5,-1.2,-1.9,-2.1,-3.5,-2.1c-0.8,0,-1.8,0.2,-2.5,0.6c-0.6,0.3,-1.2,0.8,-1.7,1.4l-0.2,-1.9l-3.2,0.5l0,13.9l3.8,0l0,-8.4c0,-1,0.3,-1.7,0.8,-2.2c0.5,-0.5,1.1,-0.7,1.7,-0.7c1.1,0,1.4,0.6,1.4,2.3l0,9Z" class="g1_5" />
<path fill-rule="evenodd" d="M826.1,68.3l0,-14.5l-3.8,0.6l0,13.9Z" class="g1_5" />
<path fill-rule="evenodd" d="M837,62.6c0,0.7,-0.1,1.3,-0.3,1.9c-0.4,0.6,-1,1.1,-1.7,1.1c-2.3,0,-2.5,-1.6,-2.5,-4.5c0,-2.7,0.5,-4.3,2.4,-4.3c1,0,1.7,0.5,2.1,0.9Zm0.7,-8.4c0,0,-0.2,0.8,-0.3,1.1c-0.6,-0.7,-1.8,-1.5,-3.2,-1.5c-4.4,0,-5.9,4,-5.9,7.7c0,3.5,1.6,7,5.7,7c1.2,0,2.5,-0.7,3,-1.4l0,1.2c0,2.1,-0.2,3.2,-3,3.2c-1.3,0,-2.9,-0.5,-4.3,-1.2l-0.9,2.6c1.8,0.9,3.5,1.4,5.4,1.4c1.4,0,3.5,-0.2,4.8,-1.4c1.4,-1.1,1.5,-3.2,1.5,-5.2l0,-13.9Z" class="g1_5" />
<path fill-rule="evenodd" d="M855.1,68.3l0,-10c0,-1.3,0,-1.8,-0.3,-2.5c-0.5,-1.3,-1.9,-2.1,-3.7,-2.1c-1.7,0,-3.1,0.6,-4.1,1.8c0,-0.2,0.1,-1.1,0.1,-1.5l0,-5.3l-3.9,0.6l0,19l3.9,0l0,-7.8c0,-1.4,0.1,-2.1,0.6,-2.6c0.5,-0.7,1.5,-1.1,2.3,-1.1c1.1,0,1.5,0.6,1.5,2l0,9.5Z" class="g1_5" />
<g clip-path="url(#c0_5)">
<path fill-rule="evenodd" d="M826.6,50.2c0,1.3,-1.1,2.3,-2.4,2.3c-1.2,0,-2.3,-1,-2.3,-2.3c0,-1.3,1.1,-2.3,2.3,-2.3c1.3,0,2.4,1,2.4,2.3Z" class="g1_5" />
</g>
<path fill-rule="evenodd" d="M818,91.9c-1,0,-1.7,-0.7,-1.7,-1.8c0,-1.7,0.9,-2.3,3.5,-2.3l0.2,0l0,3.3c-0.6,0.6,-1.3,0.8,-2,0.8m5.7,-2.5l0,-4.8c0,-1.5,0,-1.9,-0.2,-2.5c-0.6,-1.6,-2.2,-2.5,-4.6,-2.5c-1.4,0,-2.6,0.2,-4,0.8c-0.8,0.4,-1.5,0.8,-2.2,1.2l1.3,2.5c1.7,-1.1,3.1,-1.5,4.3,-1.5c1.4,0,1.7,0.6,1.7,2.2l0,0.5l-0.8,0c-4.6,0,-6.9,1.6,-6.9,4.9c0,2.6,1.4,4.1,4.1,4.4l1.5,0c0.9,-0.1,1.6,-0.4,2.2,-0.7c0.3,-0.2,0.6,-0.5,0.9,-0.8c0.3,0.6,0.9,1.1,1.5,1.5l0.5,0.2l0.2,-0.2l1.9,-2.1c-1.3,-0.9,-1.4,-1.6,-1.4,-3.1Z" class="g1_5" />
<path fill-rule="evenodd" d="M802.9,74.8l-10.5,0l0,19.3l3.8,0l0,-8.5l5,0l0,-3.2l-5,0l0,-4.5l6.2,0Z" class="g1_5" />
<path fill-rule="evenodd" d="M811.6,79.8c-0.6,-0.2,-0.8,-0.3,-1.4,-0.3c-1.4,0,-2.8,1.3,-3.4,2.3l-0.3,-2l-3.1,0.5l0,13.8l3.8,0l0,-8.8c0,-0.7,0.1,-1.3,0.5,-1.8c0.4,-0.4,1,-0.7,1.7,-0.7c0.4,0,0.9,0.2,1.3,0.3Z" class="g1_5" />
<path fill-rule="evenodd" d="M840.9,75.2l0,18.9l3.8,0l0,-19.5Z" class="g1_5" />
<path fill-rule="evenodd" d="M848.3,85.9l4.6,-6l-4.5,0L844.7,86l4.9,8.1l4.4,0Z" class="g1_5" />
<path fill-rule="evenodd" d="M838.1,94.1l0,-10.4c0,-0.9,-0.1,-1.5,-0.2,-2c-0.5,-1.2,-1.9,-2,-3.5,-2c-0.8,0,-1.8,0.1,-2.5,0.6c-0.7,0.3,-1.3,0.7,-1.7,1.3L830,79.7l-3.2,0.5l0,13.9l3.8,0l0,-8.4c0,-1,0.3,-1.7,0.8,-2.2c0.5,-0.5,1.1,-0.7,1.7,-0.7c1.1,0,1.4,0.7,1.4,2.3l0,9Z" class="g1_5" />
<path d="M101.3,77.7l0,0Z" class="g2_5" />
<path d="M80.6,54.5l5.8,0c1.6,0,3.6,0.4,3.6,3.1c0,2.7,-2.9,3.8,-5,3.8l-4.4,0Zm0,10.6l3.3,0c5.4,0,8.2,1.2,8.2,4.4c0,2.8,-2.2,4,-5.7,4l-5.3,0L75,77.7l11.3,0c6.8,0,11.4,-2.4,11.4,-8.1c0,-4.9,-4,-6.8,-7.6,-6.8c2.4,0,5.4,-2.3,5.4,-6.1c0,-3.8,-3.5,-6.5,-7.4,-6.5L74,50.2l1,2.3l0,23.3l5.6,-3.9Z" class="g2_5" />
<path d="M106.8,54.5l3.8,0c1.6,0,9.5,0.4,9.5,9.5c0,10.4,-9.5,9.5,-9.5,9.5l-3.2,0l-6.1,4.2l10.9,0c6.8,0,13.7,-4.1,13.7,-13.7c0,-8.5,-6,-13.8,-13.7,-13.8l-11.9,0l1,2.3l0,23.2l5.5,-3.8Z" class="g2_5" />
<path d="M134.3,64c0,-7.8,5.3,-10,8.8,-10c3.5,0,8.8,2.2,8.8,10c0,7.8,-5.3,9.9,-8.8,9.9c-3.5,0,-8.8,-2.1,-8.8,-9.9m-5.8,0c0,11,8.9,14,14.6,14c5.8,0,14.6,-3,14.6,-14c0,-11,-8.8,-14.1,-14.6,-14.1c-5.7,0,-14.6,3.1,-14.6,14.1Z" class="g2_5" />
<path d="M62.5,50.2l0,34.3l5.4,-3.8l0,-30.5Z" class="g3_5" />
<path d="M68.9,82l-6.4,4.5l94.9,0l0,-4.5Z" class="g3_5" />
</svg>