<?xml version="1.0" encoding="UTF-8" standalone="no"?>
<!DOCTYPE svg PUBLIC "-//W3C//DTD SVG 1.1//EN"
"http://www.w3.org/Graphics/SVG/1.1/DTD/svg11.dtd">
<svg viewBox="0 0 909 1286" version="1.1" xmlns="http://www.w3.org/2000/svg" xmlns:xlink="http://www.w3.org/1999/xlink">
<defs>
<clipPath id="c0_1"><path d="M673.3,123.7l0,-89.2l181.8,0l0,89.2Z" /></clipPath>
<style type="text/css"><![CDATA[
.g2_1{
fill: #747B71;
}
.g3_1{
fill: #FFFFFF;
}
.g1_1{
fill: #9B9C9B;
}
]]></style>
</defs>
<path d="M21.6,1263.5l865.7,0L887.3,22L21.6,22l0,1241.5Z" class="g1_1" />
<image x="20" y="21" width="869" height="1244" xlink:href="img/1.png" />
<path d="M887.3,1263.5l-448,0l448,0l0,-380.1l0,380.1Z" class="g2_1" />
<image x="438" y="881" width="451" height="384" xlink:href="img/2.png" />
<path d="M673.3,58.4l0,21.7l11,10.9L706.1,69.3l-11,-10.9Z" class="g3_1" />
<path d="M673.3,101.9l0,21.7l21.8,0l11,-10.9L684.3,91Z" class="g3_1" />
<path d="M706.1,112.7l11,10.9l21.7,0l0,-21.8L728,91Z" class="g3_1" />
<path d="M728,91L738.8,80.2l0,-21.8l-21.7,0l-11,10.9Z" class="g3_1" />
<path fill-rule="evenodd" d="M855.1,85.8l-0.7,-3.2c-1,0.2,-1.4,0.4,-1.9,0.4c-1.9,0,-2.4,-0.7,-2.4,-3.3l0,-10.3l3.4,0l1.4,-3.7l-4.8,0l0,-5.6l-5.4,0.8l0,4.8l-2.1,0l0,3.7l2.1,0l0,11.2c0,1.9,0,2.2,0.4,3.1c0.6,1.8,2.8,3,5.5,3c1.4,0,2.9,-0.3,4.5,-0.9Z" class="g3_1" />
<path fill-rule="evenodd" d="M770.6,86.2L760.9,71.3l8.8,-12.9l-6.7,0l-8,12.7l0,-12.7l-5.6,0l0,27.8l5.6,0l0,-14.5l8.5,14.5Z" class="g3_1" />
<path fill-rule="evenodd" d="M788.4,86.2l0,-14.9c0,-1.3,-0.1,-2.2,-0.3,-3c-0.6,-1.7,-2.7,-2.9,-5,-2.9c-1.2,0,-2.6,0.2,-3.7,0.8c-0.9,0.5,-1.7,1.2,-2.3,1.9l-0.4,-2.7l-4.6,0.8l0,20l5.5,0l0,-12.1c0,-1.4,0.4,-2.5,1.1,-3.2c0.8,-0.7,1.7,-1,2.6,-1c1.4,0,1.9,0.9,1.9,3.3l0,13Z" class="g3_1" />
<path fill-rule="evenodd" d="M798,86.2l0,-20.9l-5.5,0.9l0,20Z" class="g3_1" />
<path fill-rule="evenodd" d="M813.6,78c0,1,-0.1,2,-0.4,2.7c-0.5,1,-1.3,1.6,-2.5,1.6c-3.2,0,-3.6,-2.3,-3.6,-6.5c0,-3.8,0.7,-6.1,3.5,-6.1c1.4,0,2.5,0.7,3,1.3Zm1.1,-12.1c0,0,-0.3,1.2,-0.4,1.6c-1,-1.1,-2.6,-2.1,-4.6,-2.1c-6.4,0,-8.5,5.7,-8.5,11.1c0,5,2.2,10,8.2,10c1.7,0,3.6,-1,4.2,-2l0,1.7c0,3.1,-0.2,4.6,-4.3,4.6c-1.9,0,-4.2,-0.7,-6.2,-1.7l-1.3,3.7c2.6,1.3,5.1,2.1,7.8,2.1c2.1,0,5.1,-0.3,7,-2c2,-1.6,2.1,-4.6,2.1,-7.5l0,-20.1Z" class="g3_1" />
<path fill-rule="evenodd" d="M839.9,86.2l0,-14.3c0,-2,-0.1,-2.6,-0.6,-3.8c-0.6,-1.8,-2.7,-2.9,-5.3,-2.9c-2.4,0,-4.4,0.9,-5.9,2.5c0,-0.3,0.1,-1.5,0.1,-2.1l0,-7.7l-5.5,0.9l0,27.4l5.5,0l0,-11.3c0,-1.9,0.2,-3,0.9,-3.7c0.8,-1,2.2,-1.5,3.4,-1.5c1.6,0,2.1,0.9,2.1,2.8l0,13.7Z" class="g3_1" />
<path fill-rule="evenodd" d="M798.6,60.1c0,1.9,-1.5,3.4,-3.3,3.4c-1.9,0,-3.4,-1.5,-3.4,-3.4c0,-1.8,1.5,-3.3,3.4,-3.3c1.8,0,3.3,1.5,3.3,3.3Z" class="g3_1" />
<g clip-path="url(#c0_1)">
<path fill-rule="evenodd" d="M786.2,120.4c-1.4,0,-2.4,-1.2,-2.4,-2.7c0,-2.5,1.2,-3.4,5,-3.4l0.3,0l0,4.8c-0.8,0.9,-1.9,1.3,-2.9,1.3m8.3,-3.7l0,-6.9c0,-2.2,-0.1,-2.8,-0.4,-3.7c-0.7,-2.2,-3.1,-3.6,-6.6,-3.6c-1.9,0,-3.7,0.4,-5.7,1.3c-1.1,0.5,-2.2,1.1,-3.3,1.7l2,3.5c2.5,-1.5,4.5,-2.1,6.2,-2.1c2,0,2.5,0.9,2.5,3.1l0,0.8l-1.3,0c-6.5,0,-9.9,2.3,-9.9,7c0,3.8,2.1,6,5.9,6.4l2.2,0c1.3,-0.1,2.3,-0.5,3.1,-1.1c0.5,-0.2,0.9,-0.7,1.4,-1.1c0.4,0.9,1.2,1.7,2.2,2.2l0.7,0.3l0.2,-0.3l2.8,-3c-1.8,-1.4,-2,-2.4,-2,-4.5Z" class="g3_1" />
</g>
<path fill-rule="evenodd" d="M764.5,95.7l-15.2,0l0,27.8l5.5,0l0,-12.3l7.2,0l0,-4.6l-7.2,0l0,-6.5l9,0Z" class="g3_1" />
<path fill-rule="evenodd" d="M777.1,102.9c-0.9,-0.4,-1.3,-0.4,-2.1,-0.4c-2,0,-4,1.8,-4.9,3.2l-0.5,-2.8l-4.4,0.7l0,19.9l5.5,0l0,-12.7c0,-1.1,0.1,-1.9,0.8,-2.6c0.5,-0.6,1.4,-1,2.3,-1c0.7,0,1.4,0.2,1.9,0.5Z" class="g3_1" />
<path fill-rule="evenodd" d="M819.4,96.2l0,27.3l5.4,0l0,-28.1Z" class="g3_1" />
<path fill-rule="evenodd" d="M830,111.6l6.7,-8.6l-6.6,0l-5.3,8.8l7,11.7l6.4,0Z" class="g3_1" />
<path fill-rule="evenodd" d="M815.3,123.5l0,-15c0,-1.3,-0.1,-2.1,-0.4,-2.9c-0.6,-1.7,-2.7,-3,-5,-3c-1.2,0,-2.6,0.3,-3.7,0.9c-0.8,0.4,-1.7,1.1,-2.3,1.9l-0.4,-2.7l-4.5,0.7l0,20.1l5.4,0l0,-12.1c0,-1.5,0.5,-2.5,1.2,-3.2c0.7,-0.7,1.6,-1,2.5,-1c1.5,0,1.9,0.9,1.9,3.3l0,13Z" class="g3_1" />
</svg>